# xmcd CD database file
#
# Track frame offsets:
#	150
#	21795
#	39425
#	66329
#	80866
#	97183
#	120267
#	139842
#	159058
#	180292
#
# Disc length: 3149 seconds
#
# Revision: 0
# Processed by: cddbd v1.5.1PL0 Copyright (c) Steve Scherf et al.
# Submitted via: CDex 1.51
#
DISCID=790c4b0a
DTITLE=Nah Youn Sun - Nah Youn Sun With Refractory
DYEAR=2005
DGENRE=Jazz
TTITLE0=Tango De Celos
TTITLE1=Love Affair
TTITLE2=Check The Bomb
TTITLE3=Chaque Fleur 
TTITLE4=Yo Solo Quiero
TTITLE5=Incantation
TTITLE6=Feather Weight
TTITLE7=Coincidence (Featuring Budapest Symphony Orchestra)
TTITLE8=Patience
TTITLE9=Planet
EXTD=YEAR: 2005
EXTT0=
EXTT1=
EXTT2=
EXTT3=
EXTT4=
EXTT5=
EXTT6=
EXTT7=
EXTT8=
EXTT9=
PLAYORDER=
